<mxfile host="app.diagrams.net" modified="2024-06-18T14:42:17.996Z" agent="Mozilla/5.0 (Macintosh; Intel Mac OS X 10_15_7) AppleWebKit/605.1.15 (KHTML, like Gecko) Version/17.3.1 Safari/605.1.15" etag="q-OuEenRq_H6SQyWZ8w5" version="24.5.5" type="device">
  <diagram name="Page-1" id="Xiz49D0FumDPF5wHgXgK">
    <mxGraphModel dx="2020" dy="1139" grid="1" gridSize="10" guides="1" tooltips="1" connect="1" arrows="1" fold="1" page="1" pageScale="1" pageWidth="2000" pageHeight="2000" math="0" shadow="0">
      <root>
        <mxCell id="0" />
        <mxCell id="1" parent="0" />
        <mxCell id="rCkY846AgjEdWc3Gds_q-5" value="&lt;b&gt;START&lt;/b&gt;" style="strokeWidth=2;html=1;shape=mxgraph.flowchart.start_1;whiteSpace=wrap;fillColor=none;strokeColor=#FF0288;fillStyle=auto;fontColor=#FF0288;" vertex="1" parent="1">
          <mxGeometry x="360" y="100" width="80" height="40" as="geometry" />
        </mxCell>
        <mxCell id="rCkY846AgjEdWc3Gds_q-7" value="Entry&amp;nbsp;&lt;div&gt;to run?&lt;/div&gt;" style="strokeWidth=0;html=1;shape=mxgraph.flowchart.decision;whiteSpace=wrap;spacingTop=-3;fillColor=#CCFF66;strokeColor=none;fontStyle=0" vertex="1" parent="1">
          <mxGeometry x="350" y="180" width="100" height="80" as="geometry" />
        </mxCell>
        <mxCell id="rCkY846AgjEdWc3Gds_q-11" value="&lt;font color=&quot;#6c8ebf&quot;&gt;Eval&lt;/font&gt;&lt;div&gt;&lt;font color=&quot;#6c8ebf&quot;&gt;entry options&lt;/font&gt;&lt;/div&gt;" style="rounded=1;whiteSpace=wrap;html=1;fillColor=#dae8fc;strokeColor=#6c8ebf;fontStyle=0;arcSize=18;labelBorderColor=none;strokeWidth=2;" vertex="1" parent="1">
          <mxGeometry x="350" y="300" width="100" height="40" as="geometry" />
        </mxCell>
        <mxCell id="rCkY846AgjEdWc3Gds_q-12" value="" style="endArrow=block;html=1;rounded=0;exitX=0.5;exitY=1;exitDx=0;exitDy=0;exitPerimeter=0;entryX=0.5;entryY=0;entryDx=0;entryDy=0;entryPerimeter=0;endFill=1;" edge="1" parent="1" source="rCkY846AgjEdWc3Gds_q-5" target="rCkY846AgjEdWc3Gds_q-7">
          <mxGeometry width="50" height="50" relative="1" as="geometry">
            <mxPoint x="390" y="610" as="sourcePoint" />
            <mxPoint x="440" y="560" as="targetPoint" />
          </mxGeometry>
        </mxCell>
        <mxCell id="rCkY846AgjEdWc3Gds_q-13" value="" style="endArrow=block;html=1;rounded=0;entryX=0.5;entryY=0;entryDx=0;entryDy=0;dashed=1;endFill=1;exitX=0.5;exitY=1;exitDx=0;exitDy=0;exitPerimeter=0;" edge="1" parent="1" source="rCkY846AgjEdWc3Gds_q-7" target="rCkY846AgjEdWc3Gds_q-11">
          <mxGeometry width="50" height="50" relative="1" as="geometry">
            <mxPoint x="490" y="260" as="sourcePoint" />
            <mxPoint x="440" y="560" as="targetPoint" />
          </mxGeometry>
        </mxCell>
        <mxCell id="rCkY846AgjEdWc3Gds_q-14" value="YES" style="edgeLabel;html=1;align=center;verticalAlign=middle;resizable=0;points=[];" vertex="1" connectable="0" parent="rCkY846AgjEdWc3Gds_q-13">
          <mxGeometry x="-0.2" y="2" relative="1" as="geometry">
            <mxPoint as="offset" />
          </mxGeometry>
        </mxCell>
        <mxCell id="rCkY846AgjEdWc3Gds_q-15" value="&lt;b&gt;SUCCESS&lt;/b&gt;" style="strokeWidth=2;html=1;shape=mxgraph.flowchart.start_1;whiteSpace=wrap;fillColor=none;strokeColor=#FF0288;fillStyle=auto;fontColor=#FF0288;" vertex="1" parent="1">
          <mxGeometry x="220" y="200" width="80" height="40" as="geometry" />
        </mxCell>
        <mxCell id="rCkY846AgjEdWc3Gds_q-16" value="" style="endArrow=block;html=1;rounded=0;exitX=0;exitY=0.5;exitDx=0;exitDy=0;exitPerimeter=0;entryX=1;entryY=0.5;entryDx=0;entryDy=0;entryPerimeter=0;endFill=1;dashed=1;" edge="1" parent="1" source="rCkY846AgjEdWc3Gds_q-7" target="rCkY846AgjEdWc3Gds_q-15">
          <mxGeometry width="50" height="50" relative="1" as="geometry">
            <mxPoint x="400" y="230" as="sourcePoint" />
            <mxPoint x="450" y="180" as="targetPoint" />
          </mxGeometry>
        </mxCell>
        <mxCell id="rCkY846AgjEdWc3Gds_q-17" value="NO" style="edgeLabel;html=1;align=center;verticalAlign=middle;resizable=0;points=[];" vertex="1" connectable="0" parent="rCkY846AgjEdWc3Gds_q-16">
          <mxGeometry x="-0.4" y="1" relative="1" as="geometry">
            <mxPoint as="offset" />
          </mxGeometry>
        </mxCell>
        <mxCell id="rCkY846AgjEdWc3Gds_q-18" value="&lt;div&gt;Skip?&lt;/div&gt;" style="strokeWidth=0;html=1;shape=mxgraph.flowchart.decision;whiteSpace=wrap;spacingTop=-3;fillColor=#CCFF66;strokeColor=none;fontStyle=0" vertex="1" parent="1">
          <mxGeometry x="350" y="380" width="100" height="80" as="geometry" />
        </mxCell>
        <mxCell id="rCkY846AgjEdWc3Gds_q-19" value="" style="endArrow=block;html=1;rounded=0;exitX=0.5;exitY=1;exitDx=0;exitDy=0;entryX=0.5;entryY=0;entryDx=0;entryDy=0;entryPerimeter=0;endFill=1;" edge="1" parent="1" source="rCkY846AgjEdWc3Gds_q-11" target="rCkY846AgjEdWc3Gds_q-18">
          <mxGeometry width="50" height="50" relative="1" as="geometry">
            <mxPoint x="400" y="340" as="sourcePoint" />
            <mxPoint x="450" y="290" as="targetPoint" />
          </mxGeometry>
        </mxCell>
        <mxCell id="rCkY846AgjEdWc3Gds_q-20" value="Delay?" style="strokeWidth=0;html=1;shape=mxgraph.flowchart.decision;whiteSpace=wrap;spacingTop=-3;fillColor=#CCFF66;strokeColor=none;fontStyle=0" vertex="1" parent="1">
          <mxGeometry x="350" y="500" width="100" height="80" as="geometry" />
        </mxCell>
        <mxCell id="rCkY846AgjEdWc3Gds_q-21" value="" style="endArrow=block;html=1;rounded=0;exitX=0.5;exitY=1;exitDx=0;exitDy=0;entryX=0.5;entryY=0;entryDx=0;entryDy=0;entryPerimeter=0;endFill=1;exitPerimeter=0;dashed=1;" edge="1" parent="1" source="rCkY846AgjEdWc3Gds_q-18" target="rCkY846AgjEdWc3Gds_q-20">
          <mxGeometry width="50" height="50" relative="1" as="geometry">
            <mxPoint x="410" y="370" as="sourcePoint" />
            <mxPoint x="410" y="420" as="targetPoint" />
          </mxGeometry>
        </mxCell>
        <mxCell id="rCkY846AgjEdWc3Gds_q-22" value="NO" style="edgeLabel;html=1;align=center;verticalAlign=middle;resizable=0;points=[];" vertex="1" connectable="0" parent="rCkY846AgjEdWc3Gds_q-21">
          <mxGeometry x="-0.3211" y="-1" relative="1" as="geometry">
            <mxPoint as="offset" />
          </mxGeometry>
        </mxCell>
        <mxCell id="rCkY846AgjEdWc3Gds_q-23" value="&lt;font color=&quot;#6c8ebf&quot;&gt;&lt;span style=&quot;caret-color: rgb(108, 142, 191);&quot;&gt;Sleep delay&lt;/span&gt;&lt;/font&gt;" style="rounded=1;whiteSpace=wrap;html=1;fillColor=#dae8fc;strokeColor=#6c8ebf;fontStyle=0;arcSize=18;labelBorderColor=none;strokeWidth=2;" vertex="1" parent="1">
          <mxGeometry x="200" y="600" width="100" height="30" as="geometry" />
        </mxCell>
        <mxCell id="rCkY846AgjEdWc3Gds_q-25" value="" style="endArrow=block;html=1;rounded=0;entryX=0.5;entryY=0;entryDx=0;entryDy=0;dashed=1;endFill=1;exitX=0.2;exitY=0.75;exitDx=0;exitDy=0;exitPerimeter=0;" edge="1" parent="1" source="rCkY846AgjEdWc3Gds_q-20" target="rCkY846AgjEdWc3Gds_q-23">
          <mxGeometry width="50" height="50" relative="1" as="geometry">
            <mxPoint x="425" y="560" as="sourcePoint" />
            <mxPoint x="450" y="540" as="targetPoint" />
          </mxGeometry>
        </mxCell>
        <mxCell id="rCkY846AgjEdWc3Gds_q-26" value="YES" style="edgeLabel;html=1;align=center;verticalAlign=middle;resizable=0;points=[];" vertex="1" connectable="0" parent="rCkY846AgjEdWc3Gds_q-25">
          <mxGeometry x="-0.0516" y="1" relative="1" as="geometry">
            <mxPoint as="offset" />
          </mxGeometry>
        </mxCell>
        <mxCell id="rCkY846AgjEdWc3Gds_q-27" value="&lt;div&gt;&lt;font color=&quot;#6c8ebf&quot;&gt;Run HTTP requests&lt;/font&gt;&lt;/div&gt;" style="rounded=1;whiteSpace=wrap;html=1;fillColor=#dae8fc;strokeColor=#6c8ebf;fontStyle=0;arcSize=18;labelBorderColor=none;strokeWidth=2;" vertex="1" parent="1">
          <mxGeometry x="350" y="670" width="100" height="40" as="geometry" />
        </mxCell>
        <mxCell id="rCkY846AgjEdWc3Gds_q-28" value="" style="endArrow=block;html=1;rounded=0;exitX=0.5;exitY=1;exitDx=0;exitDy=0;exitPerimeter=0;entryX=0.5;entryY=0;entryDx=0;entryDy=0;dashed=1;endFill=1;" edge="1" parent="1" source="rCkY846AgjEdWc3Gds_q-20" target="rCkY846AgjEdWc3Gds_q-27">
          <mxGeometry width="50" height="50" relative="1" as="geometry">
            <mxPoint x="435" y="615" as="sourcePoint" />
            <mxPoint x="510" y="650" as="targetPoint" />
          </mxGeometry>
        </mxCell>
        <mxCell id="rCkY846AgjEdWc3Gds_q-29" value="NO" style="edgeLabel;html=1;align=center;verticalAlign=middle;resizable=0;points=[];" vertex="1" connectable="0" parent="rCkY846AgjEdWc3Gds_q-28">
          <mxGeometry x="-0.0516" y="1" relative="1" as="geometry">
            <mxPoint as="offset" />
          </mxGeometry>
        </mxCell>
        <mxCell id="rCkY846AgjEdWc3Gds_q-30" value="" style="endArrow=block;html=1;rounded=0;exitX=0.5;exitY=1;exitDx=0;exitDy=0;entryX=0.25;entryY=0;entryDx=0;entryDy=0;endFill=1;" edge="1" parent="1" source="rCkY846AgjEdWc3Gds_q-23" target="rCkY846AgjEdWc3Gds_q-27">
          <mxGeometry width="50" height="50" relative="1" as="geometry">
            <mxPoint x="400" y="610" as="sourcePoint" />
            <mxPoint x="450" y="560" as="targetPoint" />
          </mxGeometry>
        </mxCell>
        <mxCell id="rCkY846AgjEdWc3Gds_q-33" value="&lt;font color=&quot;#6c8ebf&quot;&gt;&lt;span style=&quot;caret-color: rgb(108, 142, 191);&quot;&gt;Eval errors&lt;/span&gt;&lt;/font&gt;" style="rounded=1;whiteSpace=wrap;html=1;fillColor=#dae8fc;strokeColor=#6c8ebf;fontStyle=0;arcSize=18;labelBorderColor=none;strokeWidth=2;" vertex="1" parent="1">
          <mxGeometry x="350" y="750" width="100" height="30" as="geometry" />
        </mxCell>
        <mxCell id="rCkY846AgjEdWc3Gds_q-34" value="&lt;font color=&quot;#6c8ebf&quot;&gt;&lt;span style=&quot;caret-color: rgb(108, 142, 191);&quot;&gt;Eval captures&lt;/span&gt;&lt;/font&gt;" style="rounded=1;whiteSpace=wrap;html=1;fillColor=#dae8fc;strokeColor=#6c8ebf;fontStyle=0;arcSize=18;labelBorderColor=none;strokeWidth=2;" vertex="1" parent="1">
          <mxGeometry x="350" y="820" width="100" height="30" as="geometry" />
        </mxCell>
        <mxCell id="rCkY846AgjEdWc3Gds_q-35" value="" style="endArrow=block;html=1;rounded=0;exitX=0.5;exitY=1;exitDx=0;exitDy=0;entryX=0.5;entryY=0;entryDx=0;entryDy=0;endFill=1;" edge="1" parent="1" source="rCkY846AgjEdWc3Gds_q-27" target="rCkY846AgjEdWc3Gds_q-33">
          <mxGeometry width="50" height="50" relative="1" as="geometry">
            <mxPoint x="550" y="700" as="sourcePoint" />
            <mxPoint x="435" y="730" as="targetPoint" />
          </mxGeometry>
        </mxCell>
        <mxCell id="rCkY846AgjEdWc3Gds_q-36" value="" style="endArrow=block;html=1;rounded=0;exitX=0.5;exitY=1;exitDx=0;exitDy=0;entryX=0.5;entryY=0;entryDx=0;entryDy=0;endFill=1;" edge="1" parent="1" source="rCkY846AgjEdWc3Gds_q-33" target="rCkY846AgjEdWc3Gds_q-34">
          <mxGeometry width="50" height="50" relative="1" as="geometry">
            <mxPoint x="410" y="790" as="sourcePoint" />
            <mxPoint x="410" y="840" as="targetPoint" />
          </mxGeometry>
        </mxCell>
        <mxCell id="rCkY846AgjEdWc3Gds_q-37" value="Errors?" style="strokeWidth=0;html=1;shape=mxgraph.flowchart.decision;whiteSpace=wrap;spacingTop=-3;fillColor=#CCFF66;strokeColor=none;fontStyle=0" vertex="1" parent="1">
          <mxGeometry x="350" y="890" width="100" height="80" as="geometry" />
        </mxCell>
        <mxCell id="rCkY846AgjEdWc3Gds_q-38" value="" style="endArrow=block;html=1;rounded=0;exitX=0.5;exitY=1;exitDx=0;exitDy=0;endFill=1;entryX=0.5;entryY=0;entryDx=0;entryDy=0;entryPerimeter=0;" edge="1" parent="1" source="rCkY846AgjEdWc3Gds_q-34" target="rCkY846AgjEdWc3Gds_q-37">
          <mxGeometry width="50" height="50" relative="1" as="geometry">
            <mxPoint x="410" y="820" as="sourcePoint" />
            <mxPoint x="500" y="920" as="targetPoint" />
          </mxGeometry>
        </mxCell>
        <mxCell id="rCkY846AgjEdWc3Gds_q-39" value="&lt;font color=&quot;#6c8ebf&quot;&gt;&lt;span style=&quot;caret-color: rgb(108, 142, 191);&quot;&gt;Increment&lt;/span&gt;&lt;/font&gt;&lt;div&gt;&lt;font color=&quot;#6c8ebf&quot;&gt;&lt;span style=&quot;caret-color: rgb(108, 142, 191);&quot;&gt;repeat index&lt;/span&gt;&lt;/font&gt;&lt;/div&gt;" style="rounded=1;whiteSpace=wrap;html=1;fillColor=#dae8fc;strokeColor=#6c8ebf;fontStyle=0;arcSize=18;labelBorderColor=none;strokeWidth=2;" vertex="1" parent="1">
          <mxGeometry x="350" y="1010" width="100" height="40" as="geometry" />
        </mxCell>
        <mxCell id="rCkY846AgjEdWc3Gds_q-40" value="" style="endArrow=block;html=1;rounded=0;exitX=0.5;exitY=1;exitDx=0;exitDy=0;exitPerimeter=0;endFill=1;dashed=1;startArrow=none;startFill=0;entryX=0.5;entryY=0;entryDx=0;entryDy=0;" edge="1" parent="1" source="rCkY846AgjEdWc3Gds_q-37" target="rCkY846AgjEdWc3Gds_q-39">
          <mxGeometry width="50" height="50" relative="1" as="geometry">
            <mxPoint x="460" y="880" as="sourcePoint" />
            <mxPoint x="400" y="1000" as="targetPoint" />
          </mxGeometry>
        </mxCell>
        <mxCell id="rCkY846AgjEdWc3Gds_q-41" value="NO" style="edgeLabel;html=1;align=center;verticalAlign=middle;resizable=0;points=[];" vertex="1" connectable="0" parent="rCkY846AgjEdWc3Gds_q-40">
          <mxGeometry x="0.05" y="-2" relative="1" as="geometry">
            <mxPoint x="1" y="-7" as="offset" />
          </mxGeometry>
        </mxCell>
        <mxCell id="rCkY846AgjEdWc3Gds_q-44" value="&lt;div&gt;&lt;font color=&quot;#6c8ebf&quot;&gt;&lt;span style=&quot;caret-color: rgb(108, 142, 191);&quot;&gt;Sleep&lt;/span&gt;&lt;/font&gt;&lt;/div&gt;&lt;div&gt;&lt;font color=&quot;#6c8ebf&quot;&gt;&lt;span style=&quot;caret-color: rgb(108, 142, 191);&quot;&gt;retry interval&lt;/span&gt;&lt;/font&gt;&lt;/div&gt;" style="rounded=1;whiteSpace=wrap;html=1;fillColor=#dae8fc;strokeColor=#6c8ebf;fontStyle=0;arcSize=18;labelBorderColor=none;strokeWidth=2;" vertex="1" parent="1">
          <mxGeometry x="200" y="745" width="100" height="40" as="geometry" />
        </mxCell>
        <mxCell id="rCkY846AgjEdWc3Gds_q-45" value="" style="endArrow=block;html=1;rounded=0;exitX=0;exitY=0.5;exitDx=0;exitDy=0;exitPerimeter=0;endFill=1;dashed=1;entryX=1;entryY=0.5;entryDx=0;entryDy=0;entryPerimeter=0;" edge="1" parent="1" source="rCkY846AgjEdWc3Gds_q-37" target="rCkY846AgjEdWc3Gds_q-49">
          <mxGeometry width="50" height="50" relative="1" as="geometry">
            <mxPoint x="460" y="980" as="sourcePoint" />
            <mxPoint x="240" y="970" as="targetPoint" />
          </mxGeometry>
        </mxCell>
        <mxCell id="rCkY846AgjEdWc3Gds_q-46" value="YES" style="edgeLabel;html=1;align=center;verticalAlign=middle;resizable=0;points=[];" vertex="1" connectable="0" parent="rCkY846AgjEdWc3Gds_q-45">
          <mxGeometry x="0.05" y="5" relative="1" as="geometry">
            <mxPoint x="5" y="-5" as="offset" />
          </mxGeometry>
        </mxCell>
        <mxCell id="rCkY846AgjEdWc3Gds_q-48" value="" style="edgeStyle=segmentEdgeStyle;endArrow=block;html=1;curved=0;rounded=1;endSize=8;startSize=8;entryX=0;entryY=0.5;entryDx=0;entryDy=0;exitX=0.5;exitY=0;exitDx=0;exitDy=0;endFill=1;" edge="1" parent="1" source="rCkY846AgjEdWc3Gds_q-44" target="rCkY846AgjEdWc3Gds_q-27">
          <mxGeometry width="50" height="50" relative="1" as="geometry">
            <mxPoint x="170" y="830" as="sourcePoint" />
            <mxPoint x="290" y="690" as="targetPoint" />
            <Array as="points">
              <mxPoint x="250" y="690" />
            </Array>
          </mxGeometry>
        </mxCell>
        <mxCell id="rCkY846AgjEdWc3Gds_q-49" value="Retry?" style="strokeWidth=0;html=1;shape=mxgraph.flowchart.decision;whiteSpace=wrap;spacingTop=-3;fillColor=#CCFF66;strokeColor=none;fontStyle=0" vertex="1" parent="1">
          <mxGeometry x="200" y="890" width="100" height="80" as="geometry" />
        </mxCell>
        <mxCell id="rCkY846AgjEdWc3Gds_q-50" value="" style="endArrow=block;html=1;rounded=0;entryX=0.5;entryY=1;entryDx=0;entryDy=0;exitX=0.5;exitY=0;exitDx=0;exitDy=0;exitPerimeter=0;dashed=1;endFill=1;" edge="1" parent="1" source="rCkY846AgjEdWc3Gds_q-49" target="rCkY846AgjEdWc3Gds_q-44">
          <mxGeometry width="50" height="50" relative="1" as="geometry">
            <mxPoint x="390" y="680" as="sourcePoint" />
            <mxPoint x="440" y="630" as="targetPoint" />
          </mxGeometry>
        </mxCell>
        <mxCell id="rCkY846AgjEdWc3Gds_q-51" value="YES" style="edgeLabel;html=1;align=center;verticalAlign=middle;resizable=0;points=[];" vertex="1" connectable="0" parent="rCkY846AgjEdWc3Gds_q-50">
          <mxGeometry x="0.0364" y="-1" relative="1" as="geometry">
            <mxPoint as="offset" />
          </mxGeometry>
        </mxCell>
        <mxCell id="rCkY846AgjEdWc3Gds_q-52" value="&lt;b&gt;ERROR&lt;/b&gt;" style="strokeWidth=2;html=1;shape=mxgraph.flowchart.start_1;whiteSpace=wrap;fillColor=none;strokeColor=#FF0288;fillStyle=auto;fontColor=#FF0288;" vertex="1" parent="1">
          <mxGeometry x="70" y="910" width="80" height="40" as="geometry" />
        </mxCell>
        <mxCell id="rCkY846AgjEdWc3Gds_q-53" value="NO" style="endArrow=block;html=1;rounded=0;exitX=0;exitY=0.5;exitDx=0;exitDy=0;exitPerimeter=0;dashed=1;endFill=1;spacing=0;spacingLeft=7;entryX=1;entryY=0.5;entryDx=0;entryDy=0;entryPerimeter=0;" edge="1" parent="1" source="rCkY846AgjEdWc3Gds_q-49" target="rCkY846AgjEdWc3Gds_q-52">
          <mxGeometry width="50" height="50" relative="1" as="geometry">
            <mxPoint x="390" y="690" as="sourcePoint" />
            <mxPoint x="170" y="850" as="targetPoint" />
          </mxGeometry>
        </mxCell>
        <mxCell id="rCkY846AgjEdWc3Gds_q-55" value="Repeat?" style="strokeWidth=0;html=1;shape=mxgraph.flowchart.decision;whiteSpace=wrap;spacingTop=-3;fillColor=#CCFF66;strokeColor=none;fontStyle=0" vertex="1" parent="1">
          <mxGeometry x="350" y="1090" width="100" height="80" as="geometry" />
        </mxCell>
        <mxCell id="rCkY846AgjEdWc3Gds_q-56" value="" style="endArrow=block;html=1;rounded=0;exitX=0.5;exitY=1;exitDx=0;exitDy=0;endFill=1;entryX=0.5;entryY=0;entryDx=0;entryDy=0;entryPerimeter=0;" edge="1" parent="1" source="rCkY846AgjEdWc3Gds_q-39" target="rCkY846AgjEdWc3Gds_q-55">
          <mxGeometry width="50" height="50" relative="1" as="geometry">
            <mxPoint x="390" y="900" as="sourcePoint" />
            <mxPoint x="400" y="1090" as="targetPoint" />
          </mxGeometry>
        </mxCell>
        <mxCell id="rCkY846AgjEdWc3Gds_q-58" value="" style="edgeStyle=elbowEdgeStyle;elbow=vertical;endArrow=block;html=1;curved=0;rounded=1;endSize=6;startSize=6;exitX=1;exitY=0.5;exitDx=0;exitDy=0;exitPerimeter=0;entryX=1;entryY=0.75;entryDx=0;entryDy=0;dashed=1;endFill=1;" edge="1" parent="1" source="rCkY846AgjEdWc3Gds_q-55" target="rCkY846AgjEdWc3Gds_q-11">
          <mxGeometry width="50" height="50" relative="1" as="geometry">
            <mxPoint x="390" y="780" as="sourcePoint" />
            <mxPoint x="440" y="730" as="targetPoint" />
            <Array as="points">
              <mxPoint x="510" y="730" />
            </Array>
          </mxGeometry>
        </mxCell>
        <mxCell id="rCkY846AgjEdWc3Gds_q-59" value="YES" style="edgeLabel;html=1;align=center;verticalAlign=middle;resizable=0;points=[];" vertex="1" connectable="0" parent="rCkY846AgjEdWc3Gds_q-58">
          <mxGeometry x="-0.9422" y="-2" relative="1" as="geometry">
            <mxPoint y="-2" as="offset" />
          </mxGeometry>
        </mxCell>
        <mxCell id="rCkY846AgjEdWc3Gds_q-60" value="&lt;font color=&quot;#6c8ebf&quot;&gt;&lt;span style=&quot;caret-color: rgb(108, 142, 191);&quot;&gt;Increment&lt;/span&gt;&lt;/font&gt;&lt;div&gt;&lt;font color=&quot;#6c8ebf&quot;&gt;&lt;span style=&quot;caret-color: rgb(108, 142, 191);&quot;&gt;entry index&lt;/span&gt;&lt;/font&gt;&lt;/div&gt;" style="rounded=1;whiteSpace=wrap;html=1;fillColor=#dae8fc;strokeColor=#6c8ebf;fontStyle=0;arcSize=18;labelBorderColor=none;strokeWidth=2;" vertex="1" parent="1">
          <mxGeometry x="350" y="1210" width="100" height="40" as="geometry" />
        </mxCell>
        <mxCell id="rCkY846AgjEdWc3Gds_q-61" value="" style="endArrow=block;html=1;rounded=0;exitX=0.5;exitY=1;exitDx=0;exitDy=0;exitPerimeter=0;entryX=0.5;entryY=0;entryDx=0;entryDy=0;dashed=1;endFill=1;" edge="1" parent="1" source="rCkY846AgjEdWc3Gds_q-55" target="rCkY846AgjEdWc3Gds_q-60">
          <mxGeometry width="50" height="50" relative="1" as="geometry">
            <mxPoint x="390" y="780" as="sourcePoint" />
            <mxPoint x="440" y="730" as="targetPoint" />
          </mxGeometry>
        </mxCell>
        <mxCell id="rCkY846AgjEdWc3Gds_q-62" value="NO" style="edgeLabel;html=1;align=center;verticalAlign=middle;resizable=0;points=[];" vertex="1" connectable="0" parent="rCkY846AgjEdWc3Gds_q-61">
          <mxGeometry x="-0.3" y="1" relative="1" as="geometry">
            <mxPoint as="offset" />
          </mxGeometry>
        </mxCell>
        <mxCell id="rCkY846AgjEdWc3Gds_q-63" value="" style="edgeStyle=elbowEdgeStyle;elbow=vertical;endArrow=block;html=1;curved=0;rounded=1;endSize=6;startSize=6;exitX=1;exitY=0.5;exitDx=0;exitDy=0;entryX=1;entryY=0.25;entryDx=0;entryDy=0;endFill=1;" edge="1" parent="1" source="rCkY846AgjEdWc3Gds_q-60" target="rCkY846AgjEdWc3Gds_q-11">
          <mxGeometry width="50" height="50" relative="1" as="geometry">
            <mxPoint x="630" y="980" as="sourcePoint" />
            <mxPoint x="570" y="800" as="targetPoint" />
            <Array as="points">
              <mxPoint x="570" y="760" />
            </Array>
          </mxGeometry>
        </mxCell>
      </root>
    </mxGraphModel>
  </diagram>
</mxfile>
